<?xml version="1.0" encoding="UTF-8" standalone="no"?>
<svg xmlns:dc="http://purl.org/dc/elements/1.1/" xmlns:cc="http://creativecommons.org/ns#"
  xmlns:rdf="http://www.w3.org/1999/02/22-rdf-syntax-ns#" xmlns:svg="http://www.w3.org/2000/svg"
  xmlns="http://www.w3.org/2000/svg" id="svg44" version="1.1" viewBox="0 0 1123 794" width="1000" height="500">

  <metadata id="metadata48">
    <rdf:RDF>
      <cc:Work rdf:about="">
        <dc:format>image/svg+xml</dc:format>
        <dc:type rdf:resource="http://purl.org/dc/dcmitype/StillImage" />
        <dc:title></dc:title>
      </cc:Work>
    </rdf:RDF>
  </metadata>
  <style id="style2">
    <![CDATA[
    svg {
      stroke: #000;
      stroke-linecap: round;
      stroke-linejoin: round;
      fill: #fff;
      fill-rule: evenodd;
      font-family: Roboto;
      font-size: 14px;
      text-anchor: middle
    }

    svg text {
      stroke: none
    }
    ]]>
  </style>

  <g>
    <style>
      .mouse {
        fill: #E5E4E3;
      }

      .letter-path {
        fill: #E5E4E3;
        stroke: rgb(255, 140, 0);
        stroke-width: 5px;
        stroke-linejoin: round;
        stroke-linecap: round;
        stroke-dasharray: 1000;
        stroke-dashoffset: 1000;
      }

      .letterSt {
        animation-name: letterStroke;
        animation-duration: 4s;
        animation-iteration-count: infinite;
      }

      @keyframes letterStroke {
        0% {
          stroke-dashoffset: 1000;
        }

        50% {
          stroke-dashoffset: 0;
        }

        100% {
          stroke-dashoffset: 1000;
        }
      }
    </style>

    <g transform="translate(346.1667 330.6111)" aria-label="yinde" id="text-yinde" class="letter-path letterSt"
      style="fill:#E5E4E3;">
      <path aria-label="y" id="text-y"
        d="M 126.70738,56.622101 102.44069,169.98221 c -5.200002,16.29335 -14.213344,28.42669 -27.040023,28.42669 -7.973341,0 -10.400009,-7.28001 -10.400009,-15.25335 0,-2.77333 0.346667,-5.89334 1.040001,-8.66667 L 91.000682,56.622101 H 41.080635 L 17.50728,167.90221 c -1.733335,8.32 -2.773336,15.94668 -2.773336,22.53335 0,29.12003 16.293348,41.60004 37.093368,41.60004 11.786678,0 27.040025,-3.12 41.600039,-19.41335 l -4.160004,18.72001 c -26.000024,7.97335 -56.50672,22.53336 -56.50672,51.65339 0,22.53335 17.680017,33.62669 38.826703,33.62669 22.880022,0 52.00005,-9.36 62.40006,-58.93338 l 5.2,-24.96003 c 21.49336,-5.89334 47.84005,-19.06668 61.36006,-64.82672 h -14.56001 c -9.70668,30.16002 -22.53336,41.9467 -43.68004,49.57338 L 176.62743,56.622101 Z M 51.827312,278.14231 c 0,-13.86668 16.293348,-22.88002 33.973365,-29.4667 l -2.080002,10.05335 c -4.506671,20.45335 -12.826679,30.85336 -20.106685,30.85336 -7.626674,0 -11.786678,-6.58667 -11.786678,-11.44001 z" />
      <path aria-label="i" id="text-i"
        d="M 209.56016,56.622101 185.9868,167.90221 c -1.73333,8.32 -2.77333,15.94668 -2.77333,22.53335 0,29.12003 16.29335,41.60004 37.09336,41.60004 18.72002,0 53.04005,-7.62667 72.80007,-64.13339 h -14.56001 c -5.20001,17.33334 -17.68002,30.50669 -31.20003,30.50669 -9.70668,0 -14.21335,-3.12 -14.21335,-12.82668 0,-3.12 0.34667,-6.58667 1.38667,-11.09334 L 259.4802,56.622101 Z" />
      <path aria-label="n" id="text-n"
        d="m 378.38637,104.46215 c 0,22.18668 -15.60001,64.82672 -15.60001,88.40008 0,19.76002 10.74668,39.17337 40.90671,39.17337 18.37335,0 45.0667,-7.28001 64.48006,-64.13339 h -14.56002 c -7.62667,18.02668 -13.86668,30.50669 -29.12003,30.50669 -10.4,0 -13.86667,-5.89334 -13.86667,-14.56001 0,-19.41335 16.64001,-61.36006 16.64001,-89.440087 0,-27.733359 -16.29335,-39.17337 -38.48004,-39.17337 -10.74667,0 -26.00002,2.773336 -40.56003,19.413351 l 3.81333,-18.026683 H 302.11964 L 265.37294,229.9556 h 49.92004 l 23.57336,-111.28011 c 5.2,-17.33335 14.56001,-31.893361 27.04002,-31.893361 8.32001,0 12.48001,6.240006 12.48001,17.680021 z" />
      <path aria-label="d" id="text-d"
        d="M 583.2663,-5.7779578 566.27961,73.95545 v -1.386668 c 0,-10.053342 -8.32001,-17.680016 -28.08002,-17.680016 -60.32006,0 -89.09342,74.533404 -89.09342,121.333444 0,41.25338 22.53335,55.81339 46.10671,55.81339 24.61336,0 40.9067,-15.94668 51.30671,-31.89336 2.77334,19.41335 15.25335,29.81336 33.97337,29.81336 18.72002,0 49.92005,-5.54667 69.68006,-62.05339 h -14.56001 c -5.2,17.33334 -14.56001,30.50669 -28.08003,30.50669 -9.70667,0 -14.21334,-3.12 -14.21334,-12.82668 0,-3.12 0.34666,-6.58667 1.38667,-11.09334 l 39.8667,-187.200178 z M 546.17293,169.63554 c -4.50667,19.06668 -18.72002,28.77336 -28.4267,28.77336 -6.24,0 -17.33335,-0.34667 -17.33335,-27.04002 0,-32.5867 19.06669,-94.986761 48.53338,-94.986761 10.40001,0 13.52002,7.973341 14.21335,12.133345 l -16.98668,79.386746 z" />
      <path aria-label="e" id="text-e"
        d="m 682.06625,170.32887 c 0,-3.12 0.34666,-6.93334 0.69333,-10.40001 41.60004,-2.42666 79.73341,-32.93336 79.73341,-73.146731 0,-17.333349 -7.28001,-33.280031 -38.13337,-33.280031 -71.06673,0 -93.60009,83.546742 -93.60009,123.413452 0,39.17337 21.49336,55.12005 53.73339,55.12005 27.73336,0 52.69338,-11.78668 59.97339,-51.30672 -11.09335,9.70668 -27.73336,18.37335 -40.90671,18.37335 -12.13334,0 -21.49335,-6.93334 -21.49335,-28.77336 z m 53.73338,-84.240075 c 0,29.120025 -23.57335,55.813385 -50.61338,57.200055 7.28001,-32.93337 24.61336,-71.413402 41.94671,-71.413402 6.58667,0 8.66667,5.546672 8.66667,14.213347 z" />
    </g>


    <g transform="translate(375.0556 157.2778)" aria-label="real" id="text-real" class="letter-path letterSt"
      style="fill:#E5E4E3;">
      <path aria-label="r" id="text-r"
        d="M 49.544958,52.000092 18.922723,196.4446 H 60.52274 L 83.633861,86.666772 C 90.856086,80.022325 96.056088,75.68899 104.72276,75.68899 c 8.66667,0 0.57778,19.066675 16.75556,19.066675 14.15556,0 20.80001,-10.977783 20.80001,-21.088898 0,-10.977782 -6.93334,-21.666675 -19.93334,-21.666675 -13.86667,0 -24.844457,9.244448 -34.955572,17.911118 l 3.755557,-17.911118 z" />
      <path aria-label="e" id="text-e"
        d="m 177.52263,149.64458 c 0,-3.46667 0.28889,-7.51112 0.57778,-11.55556 34.66668,-2.02223 66.44447,-27.73335 66.44447,-60.955585 0,-14.44445 -6.06667,-27.733345 -31.77779,-27.733345 -59.22225,0 -78.00003,69.62225 -78.00003,102.84449 0,32.64446 17.91112,45.93335 45.06668,45.93335 38.42224,0 62.97781,-26.86668 79.44448,-53.44447 h -9.82223 c -14.44445,16.46668 -28.31112,29.17779 -51.13335,29.17779 -13.86667,0 -20.80001,-4.62222 -20.80001,-24.26667 z m 44.7778,-73.088923 c 0,23.977783 -19.64446,46.222243 -41.88891,47.666683 5.77778,-28.600008 19.93334,-59.511132 34.66668,-59.511132 5.48889,0 7.22223,4.622224 7.22223,11.844449 z" />
      <path aria-label="a" id="text-a"
        d="m 346.52237,52.000092 -3.17778,15.311117 v -2.022223 c 0,-8.377781 -6.93333,-14.733339 -23.40001,-14.733339 -50.26668,0 -74.24447,62.111133 -74.24447,101.111153 0,34.37779 18.77778,46.51113 38.42224,46.51113 20.51112,0 34.0889,-13.28889 43.04446,-26.57779 1.73333,17.33334 12.13334,26.57779 28.31112,26.57779 15.60001,0 41.60002,-6.35556 58.06669,-53.44447 h -12.13334 c -4.33333,14.44445 -12.13333,27.15557 -23.40001,27.15557 -8.08889,0 -11.84444,-4.33334 -11.84444,-12.42223 0,-2.6 0.28888,-5.48889 1.15555,-9.24445 l 20.80001,-98.222258 z m -17.62223,16.466673 c 9.24445,0 11.84445,7.511114 11.84445,10.977782 l -13.86667,65.288913 c -3.46667,16.75557 -15.60001,25.42224 -23.97779,25.42224 -5.2,0 -14.44445,-0.28889 -14.44445,-22.53335 0,-27.15556 15.8889,-79.155585 40.44446,-79.155585 z" />
      <path aria-label="l" id="text-l"
        d="M 474.49992,-6.355488 431.74435,-0.57770782 400.83323,144.15568 c -1.44445,6.93334 -2.31112,13.2889 -2.31112,18.77779 0,24.55557 13.57779,35.24446 30.91113,35.24446 15.6,0 30.33334,-9.82223 31.77779,-30.33335 -1.73334,0.86667 -4.04445,1.73334 -9.24445,1.73334 -8.95556,0 -11.84445,-4.91112 -11.84445,-11.55556 0,-2.6 0.57778,-5.48889 1.15556,-8.37778 z" />
    </g>

    <g transform="translate(-0.5 139.5)" aria-label="A" id="textA" style="fill:#E5E4E3;">
      <path aria-label="A"
      class="letter-path letterSt"
        d="m 325.97721,445.41 90.589,-424.671996 c -13.848,-5.77 -32.312,-8.078 -45.583,-8.078 -67.509,0 -142.519,77.895 -200.796,170.214996 -12.117,-1.154 -21.926,-1.731 -30.004,-1.731 -68.085999,0 -117.707999,31.735 -117.707999,70.971 0,22.503 16.156,33.466 35.774,33.466 17.887,0 32.312,-8.655 32.312,-22.503 0,-8.078 -4.616,-17.887 -7.501,-17.887 7.501,-19.618 31.734999,-27.696 67.508999,-30.004 -50.199,88.281 -84.818999,182.909 -84.818999,234.839 0,60.008 46.159999,61.162 77.317999,61.162 -3.462,-5.193 -8.078,-13.848 -8.078,-32.312 0,-60.008 31.735,-169.638 75.01,-263.689 25.388,2.308 47.891,7.501 77.318,20.772 l -44.429,209.451 z m -33.466,-234.839 c -22.503,-9.232 -47.314,-15.579 -70.394,-20.195 32.312,-64.624 69.24,-118.284996 103.86,-136.748996 z"
        id="text-A" />
    </g>
  </g>

</svg>
